<svg xmlns="http://www.w3.org/2000/svg" xmlns:xlink="http://www.w3.org/1999/xlink" width="1080" zoomAndPan="magnify" viewBox="0 0 810 809.999993" height="1080" preserveAspectRatio="xMidYMid meet" version="1.0"><defs><clipPath id="ed26f28f4b"><path d="M 260.71875 162 L 549.46875 162 L 549.46875 535 L 260.71875 535 Z M 260.71875 162 " clip-rule="nonzero"/></clipPath></defs><g clip-path="url(#ed26f28f4b)"><path fill="#6f6f98" d="M 546.253906 296.617188 C 546.371094 283.109375 545.21875 269.339844 540.535156 256.582031 C 527.550781 224.886719 493.144531 195.921875 461.488281 183.914062 C 452.671875 178.175781 442.625 174.546875 432.425781 172.167969 C 428.820312 170.230469 424.621094 169.480469 420.675781 168.441406 C 411.234375 166.238281 401.738281 164.160156 392.09375 163.0625 C 371.734375 160.640625 351.203125 163.546875 331.40625 168.425781 C 305.351562 174.675781 300.703125 180.289062 291.535156 204.769531 C 279.410156 214.113281 269.308594 226.476562 264.519531 241.167969 C 256.335938 264.847656 261.210938 295 282.292969 309.925781 C 287.667969 320.359375 295.5625 329.390625 306.128906 335.742188 C 322.1875 345.148438 344.984375 346.871094 359.492188 333.695312 C 366.050781 327.855469 369.480469 319.078125 368.867188 310.328125 C 368.691406 306.046875 369.84375 301.800781 369.332031 297.46875 C 369.0625 293.761719 369.175781 290.03125 369.699219 286.351562 C 372.792969 269.648438 380.734375 251.992188 398.636719 247.460938 C 422.902344 241.214844 444.777344 271.351562 454.648438 290.070312 C 454.660156 290.09375 454.671875 290.121094 454.683594 290.144531 C 454.808594 295.746094 453.75 301.523438 452.410156 306.527344 C 449.484375 315.984375 445.316406 325.039062 442.75 334.621094 C 439.761719 344.667969 437.992188 355.011719 435.917969 365.277344 C 421.132812 379.371094 405.441406 392.675781 389.199219 405.101562 C 373.894531 417.183594 357.359375 428.519531 345.570312 444.1875 C 342.230469 448.054688 339.386719 452.277344 337.351562 456.953125 C 332.578125 465.613281 329.25 475.195312 330.742188 485.171875 C 331.488281 491.371094 333.429688 497.429688 335.796875 503.191406 C 338.433594 510.289062 343.394531 519.117188 350.886719 519.648438 C 356.238281 526.085938 362.585938 531.136719 369.554688 533.722656 C 386.664062 538.816406 391.953125 519.511719 398.652344 508.011719 C 404.191406 497.082031 409.714844 486.039062 417.5 476.496094 C 427.023438 464.949219 438.550781 455.191406 450.679688 446.492188 C 481.027344 425.167969 505.820312 409.640625 520.074219 382.878906 C 523.457031 378.9375 526.65625 374.835938 529.59375 370.511719 C 539.933594 355.914062 548.03125 338.957031 549.21875 320.890625 C 549.679688 312.6875 548.769531 304.453125 546.253906 296.617188 Z M 532.339844 305.804688 C 530.378906 288.679688 525.464844 272.113281 518 256.875 C 522.316406 263.492188 526.007812 270.496094 528.726562 278.027344 C 530.699219 283.484375 532.195312 289.113281 533 294.863281 C 532.925781 298.515625 532.679688 302.164062 532.339844 305.804688 Z M 289.351562 307.957031 C 286.136719 304.324219 283.171875 300.539062 280.617188 296.28125 C 275.757812 279.875 276.707031 261.386719 282.765625 245.0625 C 283.417969 244.988281 284.007812 244.582031 284.324219 243.960938 C 285.402344 241.835938 286.324219 239.640625 287.28125 237.457031 C 288.152344 235.515625 289.25 233.660156 290.214844 231.761719 C 291.214844 236.183594 289.570312 240.414062 288.941406 244.796875 C 286.644531 248.492188 284.652344 252.378906 283.140625 256.441406 C 276.121094 274.15625 279.296875 294.671875 291.683594 309.015625 C 291.941406 309.679688 292.210938 310.339844 292.484375 310.996094 C 291.304688 310.171875 290.335938 309.066406 289.351562 307.957031 Z M 357.972656 505.996094 C 358.121094 505.503906 357.886719 504.675781 357.6875 504.125 C 357.554688 503.132812 357.554688 502.371094 357.675781 501.335938 C 358.355469 503.882812 359.769531 506.304688 361.757812 507.964844 C 361.359375 508.414062 360.945312 508.855469 360.53125 509.289062 C 359.640625 508.222656 358.789062 507.125 357.972656 505.996094 Z M 370.285156 465.09375 C 372.699219 460.773438 375.769531 456.523438 379.214844 452.410156 C 376.277344 456.660156 373.1875 460.820312 370.285156 465.09375 Z M 347.316406 478.820312 C 346.960938 476.335938 346.984375 473.953125 347.308594 471.664062 C 349.296875 466.277344 352.269531 461.140625 356 456.636719 C 358.550781 453.589844 361.363281 450.8125 364.363281 448.246094 C 358.820312 455.738281 354.125 464.039062 352.800781 473.347656 C 351.863281 480.113281 353.132812 487.710938 356.847656 493.558594 C 355.964844 496.753906 355.40625 499.871094 355.574219 502.398438 C 351.175781 495.246094 348.289062 487.164062 347.316406 478.820312 Z M 366.023438 510.882812 C 366.074219 510.917969 366.125 510.953125 366.175781 510.988281 C 366.683594 511.625 367.316406 512.144531 368.109375 512.4375 C 368.113281 512.4375 368.121094 512.433594 368.121094 512.429688 C 368.164062 512.261719 368.203125 512.101562 368.246094 511.9375 C 374.71875 513.363281 379.113281 506.878906 382.703125 502.503906 C 387.078125 496.960938 390.722656 490.882812 394.382812 484.855469 C 396.214844 482.578125 398.066406 480.296875 399.941406 478.03125 C 398.996094 479.449219 398.078125 480.890625 397.199219 482.371094 C 391.125 492.53125 385.808594 503.136719 379.890625 513.390625 C 378.589844 515.355469 377.203125 518.511719 374.5 518.808594 C 370.375 518.636719 367.023438 515.886719 364.074219 513.011719 C 364.742188 512.3125 365.394531 511.597656 366.023438 510.882812 Z M 474.46875 305.820312 C 474.566406 304.632812 474.710938 303.433594 474.746094 302.21875 C 474.921875 304.554688 475.070312 306.894531 475.199219 309.234375 C 474.976562 308.09375 474.734375 306.953125 474.46875 305.820312 Z M 496.957031 273.800781 C 507.125 291.660156 509.050781 313.992188 500.519531 332.929688 C 498.710938 337.105469 496.449219 341.015625 493.921875 344.753906 C 503.574219 322.902344 503.6875 296.464844 496.957031 273.800781 Z M 454.800781 235.070312 C 469.335938 247.992188 481.472656 264.648438 485.953125 283.808594 C 490.890625 306.980469 488.449219 333.058594 473.0625 351.9375 C 475.332031 344.839844 476.554688 337.632812 476.867188 330.441406 C 478.445312 331.023438 480.210938 330 480.996094 328.070312 C 481.96875 323.648438 481.585938 318.96875 481.53125 314.449219 C 480.878906 304.871094 480.742188 295.167969 478.550781 285.777344 C 477.03125 279.746094 474.449219 274.050781 470.796875 269.003906 C 468.972656 266.734375 467.292969 264.527344 466.585938 261.644531 C 461.882812 248.601562 455.636719 235.226562 443.90625 227.113281 C 447.699219 229.53125 451.347656 232.175781 454.800781 235.070312 Z M 369.671875 214.511719 C 369.570312 214.574219 369.472656 214.636719 369.371094 214.699219 C 368.195312 215.4375 367.03125 216.191406 365.875 216.957031 C 366.9375 215.867188 368.296875 215.132812 369.671875 214.511719 Z M 352.386719 296.03125 C 353.652344 295.457031 354.6875 294.554688 355.625 293.550781 C 355.710938 298.84375 356.429688 304.304688 353.363281 308.941406 C 352.527344 310.160156 351.535156 311.347656 350.433594 312.492188 C 351.019531 309.320312 351.5 306.128906 351.832031 302.921875 C 352.070312 300.621094 352.238281 298.332031 352.386719 296.03125 Z M 355.855469 287.691406 C 355.066406 288.726562 354.1875 289.695312 353.195312 290.539062 C 353.664062 288.300781 354.125 286.066406 354.605469 283.835938 C 355.019531 282.03125 355.34375 280.1875 355.796875 278.398438 C 355.929688 279.554688 356.070312 280.707031 356.238281 281.855469 C 356.292969 282.246094 356.351562 282.640625 356.410156 283.03125 C 356.171875 284.578125 355.984375 286.128906 355.855469 287.691406 Z M 385.882812 228.292969 C 387.675781 227.628906 389.5 227.046875 391.351562 226.550781 C 393.675781 225.976562 396.003906 225.507812 398.351562 225.148438 C 398.152344 225.257812 397.957031 225.371094 397.761719 225.484375 C 395.714844 226.667969 393.691406 227.933594 391.824219 229.390625 C 390.777344 229.140625 389.726562 228.910156 388.675781 228.710938 C 387.75 228.539062 386.816406 228.398438 385.882812 228.292969 Z M 387.292969 233.582031 C 387.171875 233.707031 387.054688 233.832031 386.9375 233.960938 C 384.289062 234.316406 381.660156 234.851562 379.082031 235.566406 C 375.824219 236.476562 372.625 237.59375 369.511719 238.914062 C 373.652344 233.769531 381.101562 232.976562 387.292969 233.582031 Z M 404.601562 224.417969 C 409.46875 224.152344 414.351562 224.222656 419.222656 224.300781 C 412.296875 226.457031 405.332031 228.5 398.667969 231.410156 C 397.246094 230.921875 395.808594 230.46875 394.363281 230.058594 C 397.546875 227.789062 400.996094 225.925781 404.601562 224.417969 Z M 361.109375 238.21875 C 361.363281 237.480469 361.621094 236.75 361.910156 236.03125 C 363.234375 232.101562 366.207031 228.417969 365.269531 224.054688 C 371.421875 219.578125 377.957031 215.652344 384.9375 212.597656 C 396.53125 212.34375 408.195312 215.367188 419.484375 217.976562 C 398.019531 215.765625 374.417969 219.480469 361.109375 238.21875 Z M 437.101562 225.195312 C 451.738281 232.101562 459.574219 246.953125 464.773438 261.625 C 453.617188 249.804688 440.414062 238.734375 424.449219 234.410156 C 422.734375 233.960938 420.992188 233.589844 419.234375 233.308594 C 425.203125 231.617188 433.738281 231.058594 437.101562 225.195312 Z M 429.148438 222.144531 C 429.804688 222.328125 430.457031 222.527344 431.101562 222.738281 C 430.421875 223.246094 429.625 223.558594 428.832031 223.839844 C 428.910156 223.214844 428.804688 222.570312 428.542969 221.992188 C 428.746094 222.042969 428.945312 222.09375 429.148438 222.144531 Z M 339.261719 219.867188 C 341.332031 218.941406 343.429688 218.074219 345.550781 217.269531 C 345.257812 217.703125 344.960938 218.136719 344.675781 218.578125 C 341.765625 223.0625 338.898438 227.570312 336.058594 232.097656 C 323.421875 235.976562 313.25 249.140625 306.902344 260.242188 C 305.539062 258.066406 304.273438 255.835938 303.082031 253.554688 C 302.925781 253.25 302.78125 252.9375 302.628906 252.628906 C 304.144531 249.15625 306.042969 245.84375 308.304688 242.78125 C 311.957031 238.597656 315.960938 234.59375 320.238281 230.878906 C 326.070312 226.441406 332.589844 222.871094 339.261719 219.867188 Z M 334.601562 283.566406 C 332.453125 286.757812 330.335938 290.53125 326.710938 292.191406 C 326.4375 289.828125 326.894531 287.492188 327.480469 285.210938 C 329.949219 285.546875 332.429688 284.664062 334.601562 283.566406 Z M 298.398438 272.285156 C 298.441406 267.796875 299.105469 263.347656 300.324219 259.0625 C 301.667969 261.390625 303.101562 263.667969 304.652344 265.863281 C 303.429688 269.726562 304.410156 273.980469 307.027344 277.03125 C 305.398438 281.570312 304.945312 287.128906 308.78125 290.695312 C 309.9375 292.078125 311.828125 292.917969 313.550781 292.199219 C 313.695312 299.445312 318.617188 307.75 326.523438 307.953125 C 327.09375 310.097656 329.546875 311.199219 331.609375 310.613281 C 334.335938 309.550781 335.988281 306.859375 337.816406 304.714844 C 337.003906 309.101562 336.359375 313.679688 334.207031 317.644531 C 321.726562 314.507812 310.273438 308.441406 302.558594 300.15625 C 299.570312 291.234375 298.535156 281.511719 298.398438 272.285156 Z M 469.644531 290.253906 C 465.804688 277.402344 457.902344 266.136719 449.449219 255.886719 C 458.003906 263.320312 466.628906 271.164062 471.097656 281.886719 C 472.5625 287.945312 473.191406 294.292969 473.082031 300.578125 C 472.199219 297.570312 471.167969 294.597656 470.007812 291.667969 C 469.886719 291.195312 469.78125 290.722656 469.644531 290.253906 Z M 459.128906 385.808594 C 458.660156 386.332031 458.1875 386.851562 457.722656 387.378906 C 456.507812 388.5625 455.578125 390.246094 453.855469 390.695312 C 453.085938 390.980469 452.316406 391.265625 451.542969 391.550781 C 454.101562 389.667969 456.636719 387.757812 459.128906 385.808594 Z M 462.828125 425.15625 C 450.722656 432.496094 438.46875 440.1875 427.316406 449.089844 C 442.484375 435.332031 459.441406 423.585938 477.453125 413.835938 C 473.472656 417.164062 469.441406 420.4375 465.355469 423.632812 C 464.511719 424.140625 463.667969 424.652344 462.828125 425.15625 Z M 523.867188 341.929688 C 522.285156 344.535156 520.738281 347.152344 519.117188 349.808594 C 525.792969 331.074219 529.472656 309.957031 524.371094 290.398438 C 518.929688 270.503906 503.925781 255.234375 489.667969 241.101562 C 479.632812 232.0625 469.15625 223.21875 457.21875 216.78125 C 454.070312 215.117188 450.839844 213.617188 447.5625 212.238281 C 435.144531 204.664062 421.828125 199.507812 408.152344 196.757812 C 396.453125 193.210938 384.121094 192.066406 371.902344 193.136719 C 361.527344 193.8125 351.140625 195.742188 341.511719 199.75 C 332.167969 203.644531 323.621094 209.128906 315.78125 215.523438 C 309.496094 219.855469 303.855469 225.144531 299.199219 231.164062 C 300.167969 227.582031 301.316406 224.046875 302.597656 220.566406 C 304.289062 217.671875 306.238281 214.949219 308.316406 212.324219 C 317.71875 204.613281 328.054688 198.226562 339.183594 193.167969 C 347.710938 189.453125 356.894531 186.679688 366.03125 184.460938 C 368.335938 184.015625 370.648438 183.625 372.964844 183.285156 C 392.148438 181.917969 411.445312 183.421875 430.320312 187.050781 C 436.019531 188.722656 441.601562 190.773438 447.03125 193.167969 C 449.441406 194.492188 451.824219 195.875 454.234375 197.128906 C 467.964844 204.429688 480.179688 214.136719 491.265625 224.988281 C 494.644531 228.441406 497.996094 231.964844 501.261719 235.570312 C 509.746094 246.519531 516.628906 258.792969 521.445312 272.066406 C 526.722656 286.886719 529.9375 303.753906 530.28125 320.667969 C 528.871094 327.964844 527.078125 335.261719 523.867188 341.929688 Z M 510.070312 231.734375 C 510.195312 231.554688 510.304688 231.359375 510.394531 231.15625 C 517.765625 240.90625 524.605469 251.351562 528.773438 262.90625 C 528.082031 261.839844 527.390625 260.777344 526.699219 259.710938 C 520.648438 250.765625 515.40625 241.273438 508.71875 232.742188 C 509.246094 232.566406 509.722656 232.226562 510.070312 231.734375 Z M 326.085938 186.765625 C 338.925781 175.808594 355.535156 170.109375 372.324219 169.484375 C 356.054688 172.472656 340.699219 179.191406 326.085938 186.765625 Z M 307.199219 181.34375 C 317.546875 172.953125 331.546875 170.914062 344.25 167.890625 C 330.898438 173.035156 319.308594 182.132812 310.445312 193.304688 C 305.488281 195.71875 300.667969 198.417969 296.105469 201.492188 C 298.851562 194.34375 301.253906 186.542969 307.199219 181.34375 Z M 292.78125 210.945312 C 293.0625 210.132812 293.34375 209.316406 293.625 208.5 C 294.539062 207.839844 295.46875 207.199219 296.40625 206.570312 C 299.0625 204.84375 301.78125 203.253906 304.566406 201.777344 C 303.9375 203.019531 303.113281 204.046875 302.042969 204.933594 C 297.976562 208.859375 294.214844 213.492188 292.125 218.808594 C 291.929688 219.121094 291.746094 219.441406 291.550781 219.753906 C 290.660156 220.871094 289.777344 222 288.9375 223.164062 C 289.445312 221.421875 289.957031 219.683594 290.472656 217.941406 C 291.164062 215.582031 291.984375 213.269531 292.78125 210.945312 Z M 266.15625 245.5625 C 269.867188 232.398438 278.179688 220.953125 288.691406 212.316406 C 286.207031 219.140625 284.046875 226.085938 282.238281 233.117188 C 282.066406 233.796875 281.886719 234.480469 281.703125 235.164062 C 278.660156 241.636719 276.449219 248.597656 275.109375 255.761719 C 269.941406 271.050781 269.140625 286.5625 278.546875 301.34375 C 278.644531 301.613281 278.734375 301.882812 278.835938 302.148438 C 263.496094 288.195312 260.644531 264.847656 266.15625 245.5625 Z M 291.09375 317.207031 C 293.875 319.960938 297.199219 322.859375 300.800781 325.460938 C 302.183594 327.238281 303.667969 328.917969 305.253906 330.476562 C 299.652344 326.765625 294.953125 322.265625 291.09375 317.207031 Z M 337.816406 338.828125 C 348.621094 334.1875 359.761719 327.351562 365.617188 316.816406 C 366.183594 315.726562 366.691406 314.613281 367.136719 313.476562 C 366.632812 328.652344 351.855469 338.105469 337.816406 338.828125 Z M 450.09375 326.515625 C 453.078125 316.769531 456.941406 306.898438 457.761719 296.714844 C 461.875 306.644531 463.886719 317.371094 463.527344 328.101562 C 463.058594 330.507812 462.539062 332.902344 461.9375 335.277344 C 457.105469 343.96875 450.621094 351.375 443.355469 358.179688 C 444.90625 347.523438 447.019531 336.863281 450.09375 326.515625 Z M 442.644531 362.734375 C 442.71875 362.253906 442.792969 361.769531 442.871094 361.289062 C 449.035156 355.25 455.359375 349.269531 459.980469 341.90625 C 456.722656 352.472656 449.324219 361.011719 441.566406 368.621094 C 441.949219 366.664062 442.339844 364.703125 442.644531 362.734375 Z M 435.265625 368.5 C 435.121094 369.148438 434.96875 369.792969 434.800781 370.429688 C 434.242188 372.523438 433.710938 374.621094 433.160156 376.714844 C 427.757812 381.863281 422.113281 386.910156 416.683594 392.160156 C 408.195312 397.949219 399.421875 403.367188 390.917969 409.085938 C 382.394531 414.816406 374.007812 420.71875 365.660156 426.710938 C 364.078125 427.859375 362.484375 429.039062 360.898438 430.25 C 368.527344 423.25 376.960938 417.078125 385.078125 410.667969 C 402.445312 397.386719 419.398438 383.558594 435.265625 368.5 Z M 340.570312 504.582031 C 336.050781 495.40625 331.945312 485.011719 333.375 474.519531 C 333.539062 473.542969 333.742188 472.578125 333.96875 471.617188 C 333.332031 484.449219 337.644531 499.386719 345.140625 511.609375 C 343.210938 509.601562 341.761719 506.898438 340.570312 504.582031 Z M 340.570312 504.582031 " fill-opacity="1" fill-rule="nonzero"/></g><path fill="#6f6f98" d="M 394.84375 581.992188 C 380.289062 568.628906 350.984375 572.675781 339.949219 588.839844 C 327.273438 606.492188 328.554688 637.304688 351.046875 646.21875 C 360.996094 650.125 372.066406 646.375 380.238281 640.183594 C 385.503906 639.5 390.941406 637.90625 395.199219 634.617188 C 399.804688 632.777344 405.222656 631.636719 408.382812 627.316406 C 417.992188 614.355469 405.292969 591.230469 394.84375 581.992188 Z M 370.742188 607.488281 C 369.1875 607.410156 368.183594 608.585938 367.902344 609.921875 C 365.328125 610.265625 362.957031 611.875 361.074219 613.628906 C 361.585938 607.617188 366.417969 595.414062 374.164062 598.804688 C 375.574219 600.359375 376.449219 602.316406 376.921875 604.441406 C 374.574219 604.667969 372.316406 605.65625 370.742188 607.488281 Z M 358.898438 603.96875 C 358.066406 606.574219 357.605469 609.3125 357.445312 611.949219 C 357.339844 613.675781 357.332031 615.398438 357.488281 617.101562 C 356.308594 614.398438 355.910156 611.375 356.296875 608.496094 C 357.15625 606.929688 358.058594 605.414062 358.898438 603.96875 Z M 363.199219 624.097656 C 362.320312 622.824219 361.789062 621.214844 361.3125 619.8125 C 364.273438 616.675781 372.617188 612.46875 369.699219 620.644531 C 369.101562 622.574219 368.230469 624.828125 366.429688 625.90625 C 365.292969 625.417969 364.207031 624.820312 363.199219 624.097656 Z M 374.332031 612.613281 C 374.050781 612.25 373.730469 611.90625 373.386719 611.59375 C 374.261719 610.585938 375.296875 609.613281 377.34375 609.792969 C 377.222656 612.585938 376.636719 615.359375 375.800781 617.667969 C 375.859375 615.871094 375.472656 614.09375 374.332031 612.613281 Z M 379.277344 628.042969 C 378.574219 628.046875 377.863281 628.03125 377.148438 628.003906 C 380.863281 623.484375 383.121094 617.414062 383.515625 611.363281 C 383.828125 611.515625 384.421875 612.035156 384.84375 612.5 C 388.753906 617.71875 385.691406 626.59375 379.277344 628.042969 Z M 391.632812 612.292969 C 390.199219 608.332031 386.996094 605.765625 383.222656 604.761719 C 382.792969 601.878906 381.988281 599.40625 380.878906 597.410156 C 380.910156 597.417969 380.941406 597.421875 380.976562 597.429688 C 383.671875 598.164062 386.289062 599.152344 388.703125 600.5625 C 391.597656 603.6875 392.820312 608.167969 391.632812 612.292969 Z M 401.101562 627.609375 C 407.878906 615.308594 403.316406 598.257812 389.710938 593.050781 C 385.15625 591.105469 380.867188 588.449219 375.890625 587.574219 C 374.464844 584.605469 370.105469 585.898438 367.628906 586.636719 C 360.839844 586.496094 353.839844 588.332031 348.597656 592.804688 C 357.089844 580.398438 376.011719 576.15625 388.714844 584.453125 C 399.832031 590.722656 417.324219 619.296875 401.101562 627.609375 Z M 401.101562 627.609375 " fill-opacity="1" fill-rule="nonzero"/></svg>