<svg xmlns="http://www.w3.org/2000/svg" xmlns:xlink="http://www.w3.org/1999/xlink" width="1080" zoomAndPan="magnify" viewBox="0 0 810 809.999993" height="1080" preserveAspectRatio="xMidYMid meet" version="1.0"><defs><clipPath id="fa4f96c0ac"><path d="M 362 237 L 651 237 L 651 370 L 362 370 Z M 362 237 " clip-rule="nonzero"/></clipPath><clipPath id="611c421195"><path d="M 299.191406 -7.398438 L 828.941406 365.785156 L 510.613281 817.667969 L -19.140625 444.484375 Z M 299.191406 -7.398438 " clip-rule="nonzero"/></clipPath><clipPath id="81aa353cf0"><path d="M 299.191406 -7.398438 L 828.941406 365.785156 L 510.613281 817.667969 L -19.140625 444.484375 Z M 299.191406 -7.398438 " clip-rule="nonzero"/></clipPath><clipPath id="8ac866d3cc"><path d="M 628 382 L 656 382 L 656 394 L 628 394 Z M 628 382 " clip-rule="nonzero"/></clipPath><clipPath id="348ac0bea1"><path d="M 299.191406 -7.398438 L 828.941406 365.785156 L 510.613281 817.667969 L -19.140625 444.484375 Z M 299.191406 -7.398438 " clip-rule="nonzero"/></clipPath><clipPath id="bc1b5d423f"><path d="M 299.191406 -7.398438 L 828.941406 365.785156 L 510.613281 817.667969 L -19.140625 444.484375 Z M 299.191406 -7.398438 " clip-rule="nonzero"/></clipPath><clipPath id="b4e006d2b5"><path d="M 675 408 L 695 408 L 695 434 L 675 434 Z M 675 408 " clip-rule="nonzero"/></clipPath><clipPath id="61b055236b"><path d="M 299.191406 -7.398438 L 828.941406 365.785156 L 510.613281 817.667969 L -19.140625 444.484375 Z M 299.191406 -7.398438 " clip-rule="nonzero"/></clipPath><clipPath id="2ab03579b6"><path d="M 299.191406 -7.398438 L 828.941406 365.785156 L 510.613281 817.667969 L -19.140625 444.484375 Z M 299.191406 -7.398438 " clip-rule="nonzero"/></clipPath><clipPath id="868b029196"><path d="M 701 455 L 712 455 L 712 487 L 701 487 Z M 701 455 " clip-rule="nonzero"/></clipPath><clipPath id="a87d3bd4ff"><path d="M 299.191406 -7.398438 L 828.941406 365.785156 L 510.613281 817.667969 L -19.140625 444.484375 Z M 299.191406 -7.398438 " clip-rule="nonzero"/></clipPath><clipPath id="792f987c18"><path d="M 299.191406 -7.398438 L 828.941406 365.785156 L 510.613281 817.667969 L -19.140625 444.484375 Z M 299.191406 -7.398438 " clip-rule="nonzero"/></clipPath><clipPath id="a64f73da87"><path d="M 698 508 L 711 508 L 711 541 L 698 541 Z M 698 508 " clip-rule="nonzero"/></clipPath><clipPath id="821763e8ad"><path d="M 299.191406 -7.398438 L 828.941406 365.785156 L 510.613281 817.667969 L -19.140625 444.484375 Z M 299.191406 -7.398438 " clip-rule="nonzero"/></clipPath><clipPath id="94f6a2ea93"><path d="M 299.191406 -7.398438 L 828.941406 365.785156 L 510.613281 817.667969 L -19.140625 444.484375 Z M 299.191406 -7.398438 " clip-rule="nonzero"/></clipPath><clipPath id="5611edbb82"><path d="M 666 558 L 691 558 L 691 585 L 666 585 Z M 666 558 " clip-rule="nonzero"/></clipPath><clipPath id="405b77e045"><path d="M 299.191406 -7.398438 L 828.941406 365.785156 L 510.613281 817.667969 L -19.140625 444.484375 Z M 299.191406 -7.398438 " clip-rule="nonzero"/></clipPath><clipPath id="d5074a268a"><path d="M 299.191406 -7.398438 L 828.941406 365.785156 L 510.613281 817.667969 L -19.140625 444.484375 Z M 299.191406 -7.398438 " clip-rule="nonzero"/></clipPath><clipPath id="e6a0d16933"><path d="M 621 596 L 652 596 L 652 616 L 621 616 Z M 621 596 " clip-rule="nonzero"/></clipPath><clipPath id="4b147e5550"><path d="M 299.191406 -7.398438 L 828.941406 365.785156 L 510.613281 817.667969 L -19.140625 444.484375 Z M 299.191406 -7.398438 " clip-rule="nonzero"/></clipPath><clipPath id="e2c005402a"><path d="M 299.191406 -7.398438 L 828.941406 365.785156 L 510.613281 817.667969 L -19.140625 444.484375 Z M 299.191406 -7.398438 " clip-rule="nonzero"/></clipPath><clipPath id="0e361cd31d"><path d="M 569 618 L 602 618 L 602 631 L 569 631 Z M 569 618 " clip-rule="nonzero"/></clipPath><clipPath id="10e58f0c13"><path d="M 299.191406 -7.398438 L 828.941406 365.785156 L 510.613281 817.667969 L -19.140625 444.484375 Z M 299.191406 -7.398438 " clip-rule="nonzero"/></clipPath><clipPath id="2a04bc244a"><path d="M 299.191406 -7.398438 L 828.941406 365.785156 L 510.613281 817.667969 L -19.140625 444.484375 Z M 299.191406 -7.398438 " clip-rule="nonzero"/></clipPath><clipPath id="636c5f3514"><path d="M 515 627 L 548 627 L 548 634 L 515 634 Z M 515 627 " clip-rule="nonzero"/></clipPath><clipPath id="4200352905"><path d="M 299.191406 -7.398438 L 828.941406 365.785156 L 510.613281 817.667969 L -19.140625 444.484375 Z M 299.191406 -7.398438 " clip-rule="nonzero"/></clipPath><clipPath id="760424bd96"><path d="M 299.191406 -7.398438 L 828.941406 365.785156 L 510.613281 817.667969 L -19.140625 444.484375 Z M 299.191406 -7.398438 " clip-rule="nonzero"/></clipPath><clipPath id="8c6a99ed96"><path d="M 461 617 L 493 617 L 493 628 L 461 628 Z M 461 617 " clip-rule="nonzero"/></clipPath><clipPath id="e3d0d3a87d"><path d="M 299.191406 -7.398438 L 828.941406 365.785156 L 510.613281 817.667969 L -19.140625 444.484375 Z M 299.191406 -7.398438 " clip-rule="nonzero"/></clipPath><clipPath id="9b221ab04f"><path d="M 299.191406 -7.398438 L 828.941406 365.785156 L 510.613281 817.667969 L -19.140625 444.484375 Z M 299.191406 -7.398438 " clip-rule="nonzero"/></clipPath><clipPath id="e7b929ad9a"><path d="M 411 599 L 439 599 L 439 613 L 411 613 Z M 411 599 " clip-rule="nonzero"/></clipPath><clipPath id="731fec057a"><path d="M 299.191406 -7.398438 L 828.941406 365.785156 L 510.613281 817.667969 L -19.140625 444.484375 Z M 299.191406 -7.398438 " clip-rule="nonzero"/></clipPath><clipPath id="d0dc616fb7"><path d="M 299.191406 -7.398438 L 828.941406 365.785156 L 510.613281 817.667969 L -19.140625 444.484375 Z M 299.191406 -7.398438 " clip-rule="nonzero"/></clipPath><clipPath id="9b0242170d"><path d="M 362 574 L 389 574 L 389 590 L 362 590 Z M 362 574 " clip-rule="nonzero"/></clipPath><clipPath id="fa302fcf48"><path d="M 299.191406 -7.398438 L 828.941406 365.785156 L 510.613281 817.667969 L -19.140625 444.484375 Z M 299.191406 -7.398438 " clip-rule="nonzero"/></clipPath><clipPath id="3bbd7fc6a8"><path d="M 299.191406 -7.398438 L 828.941406 365.785156 L 510.613281 817.667969 L -19.140625 444.484375 Z M 299.191406 -7.398438 " clip-rule="nonzero"/></clipPath><clipPath id="264d051b82"><path d="M 316 544 L 342 544 L 342 564 L 316 564 Z M 316 544 " clip-rule="nonzero"/></clipPath><clipPath id="6b2851089d"><path d="M 299.191406 -7.398438 L 828.941406 365.785156 L 510.613281 817.667969 L -19.140625 444.484375 Z M 299.191406 -7.398438 " clip-rule="nonzero"/></clipPath><clipPath id="e5ae263033"><path d="M 299.191406 -7.398438 L 828.941406 365.785156 L 510.613281 817.667969 L -19.140625 444.484375 Z M 299.191406 -7.398438 " clip-rule="nonzero"/></clipPath><clipPath id="93b789aae7"><path d="M 281 501 L 300 501 L 300 529 L 281 529 Z M 281 501 " clip-rule="nonzero"/></clipPath><clipPath id="a9db899eb7"><path d="M 299.191406 -7.398438 L 828.941406 365.785156 L 510.613281 817.667969 L -19.140625 444.484375 Z M 299.191406 -7.398438 " clip-rule="nonzero"/></clipPath><clipPath id="e3687963e2"><path d="M 299.191406 -7.398438 L 828.941406 365.785156 L 510.613281 817.667969 L -19.140625 444.484375 Z M 299.191406 -7.398438 " clip-rule="nonzero"/></clipPath><clipPath id="3b0d9f7587"><path d="M 279 450 L 296 450 L 296 479 L 279 479 Z M 279 450 " clip-rule="nonzero"/></clipPath><clipPath id="fe7e5dc99f"><path d="M 299.191406 -7.398438 L 828.941406 365.785156 L 510.613281 817.667969 L -19.140625 444.484375 Z M 299.191406 -7.398438 " clip-rule="nonzero"/></clipPath><clipPath id="4cd6c10b52"><path d="M 299.191406 -7.398438 L 828.941406 365.785156 L 510.613281 817.667969 L -19.140625 444.484375 Z M 299.191406 -7.398438 " clip-rule="nonzero"/></clipPath><clipPath id="33a0f672ff"><path d="M 314 433 L 348 433 L 348 442 L 314 442 Z M 314 433 " clip-rule="nonzero"/></clipPath><clipPath id="c73c8b20e1"><path d="M 299.191406 -7.398438 L 828.941406 365.785156 L 510.613281 817.667969 L -19.140625 444.484375 Z M 299.191406 -7.398438 " clip-rule="nonzero"/></clipPath><clipPath id="2ad156e3a8"><path d="M 299.191406 -7.398438 L 828.941406 365.785156 L 510.613281 817.667969 L -19.140625 444.484375 Z M 299.191406 -7.398438 " clip-rule="nonzero"/></clipPath><clipPath id="6341f7cf56"><path d="M 365 444 L 390 444 L 390 472 L 365 472 Z M 365 444 " clip-rule="nonzero"/></clipPath><clipPath id="6d38643793"><path d="M 299.191406 -7.398438 L 828.941406 365.785156 L 510.613281 817.667969 L -19.140625 444.484375 Z M 299.191406 -7.398438 " clip-rule="nonzero"/></clipPath><clipPath id="eebaaba11e"><path d="M 299.191406 -7.398438 L 828.941406 365.785156 L 510.613281 817.667969 L -19.140625 444.484375 Z M 299.191406 -7.398438 " clip-rule="nonzero"/></clipPath><clipPath id="13d485df3e"><path d="M 389 491 L 399 491 L 399 526 L 389 526 Z M 389 491 " clip-rule="nonzero"/></clipPath><clipPath id="0d3ee15ecc"><path d="M 299.191406 -7.398438 L 828.941406 365.785156 L 510.613281 817.667969 L -19.140625 444.484375 Z M 299.191406 -7.398438 " clip-rule="nonzero"/></clipPath><clipPath id="e7a4d9be3b"><path d="M 299.191406 -7.398438 L 828.941406 365.785156 L 510.613281 817.667969 L -19.140625 444.484375 Z M 299.191406 -7.398438 " clip-rule="nonzero"/></clipPath><clipPath id="32e3b49ad8"><path d="M 359 543 L 385 543 L 385 572 L 359 572 Z M 359 543 " clip-rule="nonzero"/></clipPath><clipPath id="c8a80b30c5"><path d="M 299.191406 -7.398438 L 828.941406 365.785156 L 510.613281 817.667969 L -19.140625 444.484375 Z M 299.191406 -7.398438 " clip-rule="nonzero"/></clipPath><clipPath id="d035c9fc5d"><path d="M 299.191406 -7.398438 L 828.941406 365.785156 L 510.613281 817.667969 L -19.140625 444.484375 Z M 299.191406 -7.398438 " clip-rule="nonzero"/></clipPath><clipPath id="695900f6e6"><path d="M 310 578 L 344 578 L 344 595 L 310 595 Z M 310 578 " clip-rule="nonzero"/></clipPath><clipPath id="73456e4fd4"><path d="M 299.191406 -7.398438 L 828.941406 365.785156 L 510.613281 817.667969 L -19.140625 444.484375 Z M 299.191406 -7.398438 " clip-rule="nonzero"/></clipPath><clipPath id="4a3541da65"><path d="M 299.191406 -7.398438 L 828.941406 365.785156 L 510.613281 817.667969 L -19.140625 444.484375 Z M 299.191406 -7.398438 " clip-rule="nonzero"/></clipPath><clipPath id="bafd6560df"><path d="M 256 590 L 291 590 L 291 599 L 256 599 Z M 256 590 " clip-rule="nonzero"/></clipPath><clipPath id="7460b3f749"><path d="M 299.191406 -7.398438 L 828.941406 365.785156 L 510.613281 817.667969 L -19.140625 444.484375 Z M 299.191406 -7.398438 " clip-rule="nonzero"/></clipPath><clipPath id="2d5c9dc052"><path d="M 299.191406 -7.398438 L 828.941406 365.785156 L 510.613281 817.667969 L -19.140625 444.484375 Z M 299.191406 -7.398438 " clip-rule="nonzero"/></clipPath><clipPath id="36a64acb43"><path d="M 202 579 L 237 579 L 237 594 L 202 594 Z M 202 579 " clip-rule="nonzero"/></clipPath><clipPath id="01b55e8769"><path d="M 299.191406 -7.398438 L 828.941406 365.785156 L 510.613281 817.667969 L -19.140625 444.484375 Z M 299.191406 -7.398438 " clip-rule="nonzero"/></clipPath><clipPath id="8ecbc183da"><path d="M 299.191406 -7.398438 L 828.941406 365.785156 L 510.613281 817.667969 L -19.140625 444.484375 Z M 299.191406 -7.398438 " clip-rule="nonzero"/></clipPath><clipPath id="5257ba41e8"><path d="M 152 558 L 184 558 L 184 577 L 152 577 Z M 152 558 " clip-rule="nonzero"/></clipPath><clipPath id="3fd70400f4"><path d="M 299.191406 -7.398438 L 828.941406 365.785156 L 510.613281 817.667969 L -19.140625 444.484375 Z M 299.191406 -7.398438 " clip-rule="nonzero"/></clipPath><clipPath id="72e407a060"><path d="M 299.191406 -7.398438 L 828.941406 365.785156 L 510.613281 817.667969 L -19.140625 444.484375 Z M 299.191406 -7.398438 " clip-rule="nonzero"/></clipPath><clipPath id="e6070b0f7a"><path d="M 107 528 L 135 528 L 135 550 L 107 550 Z M 107 528 " clip-rule="nonzero"/></clipPath><clipPath id="b300c9c12b"><path d="M 299.191406 -7.398438 L 828.941406 365.785156 L 510.613281 817.667969 L -19.140625 444.484375 Z M 299.191406 -7.398438 " clip-rule="nonzero"/></clipPath><clipPath id="fac09515aa"><path d="M 299.191406 -7.398438 L 828.941406 365.785156 L 510.613281 817.667969 L -19.140625 444.484375 Z M 299.191406 -7.398438 " clip-rule="nonzero"/></clipPath><clipPath id="75e3e8473a"><path d="M 67 491 L 92 491 L 92 516 L 67 516 Z M 67 491 " clip-rule="nonzero"/></clipPath><clipPath id="07651b4047"><path d="M 299.191406 -7.398438 L 828.941406 365.785156 L 510.613281 817.667969 L -19.140625 444.484375 Z M 299.191406 -7.398438 " clip-rule="nonzero"/></clipPath><clipPath id="9d97691db0"><path d="M 299.191406 -7.398438 L 828.941406 365.785156 L 510.613281 817.667969 L -19.140625 444.484375 Z M 299.191406 -7.398438 " clip-rule="nonzero"/></clipPath><clipPath id="4e65c1813d"><path d="M 35 448 L 54 448 L 54 475 L 35 475 Z M 35 448 " clip-rule="nonzero"/></clipPath><clipPath id="c3f0085669"><path d="M 299.191406 -7.398438 L 828.941406 365.785156 L 510.613281 817.667969 L -19.140625 444.484375 Z M 299.191406 -7.398438 " clip-rule="nonzero"/></clipPath><clipPath id="d4a3269f58"><path d="M 299.191406 -7.398438 L 828.941406 365.785156 L 510.613281 817.667969 L -19.140625 444.484375 Z M 299.191406 -7.398438 " clip-rule="nonzero"/></clipPath><clipPath id="68ec0f8506"><path d="M 11 400 L 25 400 L 25 428 L 11 428 Z M 11 400 " clip-rule="nonzero"/></clipPath><clipPath id="0d0327910b"><path d="M 299.191406 -7.398438 L 828.941406 365.785156 L 510.613281 817.667969 L -19.140625 444.484375 Z M 299.191406 -7.398438 " clip-rule="nonzero"/></clipPath><clipPath id="885ebb9c7c"><path d="M 299.191406 -7.398438 L 828.941406 365.785156 L 510.613281 817.667969 L -19.140625 444.484375 Z M 299.191406 -7.398438 " clip-rule="nonzero"/></clipPath></defs><g clip-path="url(#fa4f96c0ac)"><g clip-path="url(#611c421195)"><g clip-path="url(#81aa353cf0)"><path fill="#6f6f98" d="M 648.976562 245.402344 C 649.523438 244.992188 649.910156 244.460938 650.136719 243.816406 C 650.363281 243.167969 650.394531 242.511719 650.226562 241.847656 C 650.058594 241.183594 649.71875 240.625 649.210938 240.164062 C 648.703125 239.703125 648.109375 239.421875 647.433594 239.320312 C 624.171875 234.757812 597.714844 241.347656 574.277344 242.820312 C 547.023438 244.519531 519.996094 247.546875 492.828125 250.886719 C 465.664062 254.230469 368.492188 270.789062 366.800781 270.347656 C 366.441406 270.296875 366.082031 270.308594 365.726562 270.375 C 365.367188 270.441406 365.03125 270.558594 364.710938 270.734375 C 364.394531 270.910156 364.109375 271.128906 363.859375 271.394531 C 363.613281 271.660156 363.414062 271.957031 363.257812 272.285156 C 363.105469 272.617188 363.007812 272.960938 362.964844 273.320312 C 362.921875 273.683594 362.9375 274.042969 363.011719 274.398438 C 363.082031 274.753906 363.210938 275.089844 363.390625 275.40625 C 363.570312 275.722656 363.792969 276 364.0625 276.246094 C 373.777344 285.109375 384.148438 293.132812 395.167969 300.308594 C 406.191406 307.488281 417.722656 313.726562 429.757812 319.027344 C 445.773438 325.273438 461.277344 332.601562 476.265625 341.011719 C 491.257812 349.425781 505.589844 358.839844 519.265625 369.257812 C 519.472656 369.414062 519.695312 369.546875 519.933594 369.652344 C 520.167969 369.761719 520.414062 369.839844 520.667969 369.894531 C 520.925781 369.945312 521.179688 369.972656 521.441406 369.96875 C 521.703125 369.964844 521.957031 369.933594 522.210938 369.871094 C 522.464844 369.8125 522.707031 369.726562 522.941406 369.609375 C 523.175781 369.496094 523.394531 369.359375 523.597656 369.195312 C 523.800781 369.035156 523.984375 368.851562 524.148438 368.648438 C 524.3125 368.445312 524.449219 368.230469 524.566406 367.996094 C 529.050781 360.574219 534.199219 353.644531 540.007812 347.207031 C 545.816406 340.769531 552.183594 334.9375 559.109375 329.71875 C 577.445312 336.234375 596.144531 341.441406 615.210938 345.34375 C 619.632812 334.21875 616.789062 272.183594 618.816406 271.199219 C 619.089844 271.078125 619.339844 270.921875 619.5625 270.726562 C 628.730469 261.613281 639.070312 253.910156 648.976562 245.402344 Z M 481.117188 259.121094 C 508.316406 255.96875 535.378906 252.304688 562.363281 250.164062 C 574.8125 249.277344 587.214844 248.6875 599.570312 247.816406 C 612.488281 245.960938 625.476562 244.976562 638.527344 244.871094 C 630.226562 251.925781 621.703125 258.828125 614.003906 266.5625 C 613.476562 266.75 613.050781 267.074219 612.726562 267.535156 C 612.402344 267.992188 612.242188 268.503906 612.242188 269.066406 C 598.292969 275.390625 572.34375 270.269531 557.335938 270.183594 C 534.84375 270.078125 512.527344 269.257812 490.027344 267.980469 C 461.722656 266.441406 433.964844 267.785156 406.160156 268.847656 C 430.261719 262.761719 456.019531 262.007812 481.117188 259.121094 Z M 557.300781 322.117188 L 556.988281 322.5625 C 552.039062 326.878906 547.324219 331.441406 542.851562 336.25 C 540.972656 338.089844 518.019531 360.386719 520.636719 362.230469 C 497.839844 344.589844 471.167969 333.875 445.773438 320.402344 C 422.992188 308.183594 396.925781 298.144531 377.285156 281.230469 C 445.9375 292.039062 515.601562 292.90625 584.441406 302.269531 C 582.992188 302.078125 577.894531 307.066406 576.683594 307.960938 L 568.886719 313.707031 C 564.996094 316.628906 560.875 319.054688 557.136719 322 Z M 565.652344 324.917969 C 573.746094 318.628906 582.09375 312.6875 590.199219 306.742188 L 605.644531 336.9375 C 592.144531 333.171875 578.882812 328.828125 565.484375 324.800781 Z M 611.175781 333.339844 C 608.234375 327.941406 595.476562 298.300781 594.046875 297.378906 C 593.300781 296.933594 592.496094 296.699219 591.628906 296.675781 C 578.527344 294.941406 565.625 292.925781 552.441406 291.550781 C 524.625 288.605469 496.609375 286.773438 468.660156 284.484375 C 454.703125 283.421875 440.742188 282.164062 426.777344 280.707031 C 419.808594 279.960938 412.839844 279.21875 405.855469 278.375 C 399.328125 277.015625 392.734375 276.171875 386.074219 275.847656 C 403.082031 275.339844 419.601562 273.402344 436.4375 273.023438 C 460.300781 272.601562 484.210938 274.707031 508.050781 275.847656 C 528.15625 276.855469 548.246094 276.9375 568.550781 276.835938 C 581.957031 276.957031 599.039062 280.832031 612.265625 276.242188 C 612.453125 286.613281 611.558594 333.03125 612.921875 335.820312 Z M 611.175781 333.339844 " fill-opacity="1" fill-rule="nonzero"/></g></g></g><g clip-path="url(#8ac866d3cc)"><g clip-path="url(#348ac0bea1)"><g clip-path="url(#bc1b5d423f)"><path fill="#6f6f98" d="M 629.742188 382.390625 C 638.820312 384.285156 647.378906 387.539062 655.421875 392.152344 C 655.605469 392.257812 655.734375 392.414062 655.796875 392.621094 C 655.859375 392.824219 655.84375 393.023438 655.75 393.21875 C 655.703125 393.324219 655.632812 393.414062 655.546875 393.488281 C 655.457031 393.5625 655.359375 393.617188 655.25 393.648438 C 655.136719 393.683594 655.023438 393.691406 654.910156 393.675781 C 654.796875 393.664062 654.6875 393.625 654.589844 393.566406 C 646.757812 388.804688 638.378906 385.371094 629.457031 383.269531 C 629.457031 383.269531 629.457031 383.269531 629.121094 383.035156 C 629.03125 382.949219 628.988281 382.84375 628.984375 382.722656 C 628.984375 382.597656 629.023438 382.492188 629.109375 382.402344 C 629.195312 382.3125 629.300781 382.265625 629.421875 382.265625 C 629.546875 382.261719 629.652344 382.304688 629.742188 382.390625 Z M 629.742188 382.390625 " fill-opacity="1" fill-rule="nonzero"/></g></g></g><g clip-path="url(#b4e006d2b5)"><g clip-path="url(#61b055236b)"><g clip-path="url(#2ab03579b6)"><path fill="#6f6f98" d="M 677.488281 408.695312 C 684.023438 415.328125 689.613281 422.679688 694.253906 430.75 C 694.371094 430.949219 694.445312 431.164062 694.476562 431.394531 C 694.511719 431.625 694.5 431.851562 694.441406 432.074219 C 694.382812 432.300781 694.285156 432.503906 694.148438 432.691406 C 694.011719 432.878906 693.84375 433.03125 693.644531 433.152344 C 693.445312 433.269531 693.230469 433.34375 693.003906 433.371094 C 692.773438 433.402344 692.546875 433.386719 692.324219 433.320312 C 692.101562 433.257812 691.898438 433.15625 691.71875 433.011719 C 691.539062 432.867188 691.394531 432.691406 691.285156 432.488281 C 686.902344 424.566406 681.675781 417.25 675.605469 410.535156 C 675.484375 410.410156 675.390625 410.265625 675.328125 410.097656 C 675.265625 409.933594 675.234375 409.765625 675.242188 409.585938 C 675.246094 409.410156 675.289062 409.242188 675.363281 409.082031 C 675.4375 408.925781 675.542969 408.785156 675.675781 408.667969 C 675.792969 408.542969 675.929688 408.445312 676.089844 408.378906 C 676.25 408.3125 676.414062 408.277344 676.585938 408.28125 C 676.757812 408.285156 676.921875 408.320312 677.082031 408.394531 C 677.238281 408.464844 677.371094 408.566406 677.488281 408.695312 Z M 677.488281 408.695312 " fill-opacity="1" fill-rule="nonzero"/></g></g></g><g clip-path="url(#868b029196)"><g clip-path="url(#a87d3bd4ff)"><g clip-path="url(#792f987c18)"><path fill="#6f6f98" d="M 705.460938 456.210938 C 708.347656 465.121094 710.253906 474.234375 711.179688 483.550781 C 711.230469 483.855469 711.222656 484.15625 711.15625 484.453125 C 711.085938 484.75 710.964844 485.027344 710.789062 485.277344 C 710.613281 485.527344 710.394531 485.734375 710.136719 485.898438 C 709.878906 486.0625 709.597656 486.171875 709.296875 486.222656 C 708.996094 486.273438 708.695312 486.265625 708.394531 486.199219 C 708.097656 486.132812 707.824219 486.011719 707.574219 485.835938 C 707.320312 485.65625 707.113281 485.441406 706.949219 485.183594 C 706.785156 484.921875 706.679688 484.644531 706.625 484.34375 C 705.988281 475.339844 704.378906 466.519531 701.792969 457.875 C 701.738281 457.621094 701.730469 457.371094 701.773438 457.117188 C 701.8125 456.863281 701.898438 456.625 702.03125 456.402344 C 702.160156 456.183594 702.328125 455.992188 702.53125 455.835938 C 702.734375 455.675781 702.957031 455.5625 703.203125 455.488281 C 703.449219 455.414062 703.703125 455.386719 703.957031 455.410156 C 704.214844 455.429688 704.457031 455.496094 704.6875 455.609375 C 704.917969 455.722656 705.121094 455.875 705.292969 456.066406 C 705.46875 456.253906 705.601562 456.46875 705.691406 456.707031 Z M 705.460938 456.210938 " fill-opacity="1" fill-rule="nonzero"/></g></g></g><g clip-path="url(#a64f73da87)"><g clip-path="url(#821763e8ad)"><g clip-path="url(#94f6a2ea93)"><path fill="#6f6f98" d="M 710.578125 511.355469 C 709.3125 520.679688 706.921875 529.710938 703.402344 538.4375 C 703.359375 538.628906 703.292969 538.8125 703.207031 538.992188 C 703.125 539.167969 703.019531 539.332031 702.898438 539.488281 C 702.777344 539.644531 702.644531 539.78125 702.492188 539.910156 C 702.339844 540.035156 702.179688 540.140625 702.003906 540.230469 C 701.828125 540.320312 701.648438 540.390625 701.457031 540.441406 C 701.269531 540.492188 701.078125 540.523438 700.878906 540.53125 C 700.683594 540.542969 700.488281 540.53125 700.296875 540.496094 C 700.101562 540.464844 699.914062 540.410156 699.734375 540.335938 C 699.550781 540.265625 699.378906 540.171875 699.21875 540.0625 C 699.054688 539.949219 698.90625 539.824219 698.773438 539.679688 C 698.636719 539.539062 698.519531 539.382812 698.417969 539.214844 C 698.316406 539.046875 698.234375 538.871094 698.171875 538.683594 C 698.109375 538.496094 698.070312 538.308594 698.046875 538.113281 C 698.027344 537.917969 698.023438 537.722656 698.046875 537.527344 C 698.066406 537.332031 698.109375 537.140625 698.167969 536.953125 C 698.230469 536.769531 698.3125 536.589844 698.414062 536.421875 C 701.851562 528.136719 704.207031 519.554688 705.476562 510.675781 C 705.523438 510.339844 705.632812 510.023438 705.804688 509.726562 C 705.976562 509.433594 706.195312 509.183594 706.46875 508.976562 C 706.738281 508.769531 707.039062 508.621094 707.367188 508.53125 C 707.695312 508.445312 708.027344 508.421875 708.367188 508.464844 C 708.699219 508.519531 709.011719 508.632812 709.300781 508.808594 C 709.589844 508.980469 709.839844 509.203125 710.042969 509.472656 C 710.25 509.738281 710.398438 510.035156 710.492188 510.363281 C 710.582031 510.6875 710.609375 511.019531 710.578125 511.355469 Z M 710.578125 511.355469 " fill-opacity="1" fill-rule="nonzero"/></g></g></g><g clip-path="url(#5611edbb82)"><g clip-path="url(#405b77e045)"><g clip-path="url(#d5074a268a)"><path fill="#6f6f98" d="M 690.007812 562.890625 C 684.632812 570.53125 678.578125 577.589844 671.84375 584.066406 C 671.566406 584.335938 671.242188 584.546875 670.878906 584.691406 C 670.519531 584.832031 670.140625 584.902344 669.75 584.898438 C 669.359375 584.890625 668.984375 584.8125 668.628906 584.65625 C 668.269531 584.503906 667.953125 584.285156 667.683594 584.003906 C 667.410156 583.726562 667.203125 583.402344 667.058594 583.042969 C 666.914062 582.679688 666.84375 582.300781 666.851562 581.910156 C 666.855469 581.519531 666.933594 581.148438 667.089844 580.789062 C 667.246094 580.429688 667.460938 580.113281 667.742188 579.84375 C 674.339844 573.734375 680.296875 567.050781 685.613281 559.792969 C 685.820312 559.480469 686.082031 559.222656 686.398438 559.015625 C 686.710938 558.808594 687.050781 558.667969 687.421875 558.601562 C 687.792969 558.53125 688.160156 558.539062 688.527344 558.617188 C 688.894531 558.699219 689.234375 558.847656 689.539062 559.0625 C 689.804688 559.300781 690.019531 559.574219 690.183594 559.890625 C 690.347656 560.203125 690.449219 560.535156 690.492188 560.890625 C 690.535156 561.242188 690.515625 561.589844 690.433594 561.933594 C 690.347656 562.277344 690.207031 562.597656 690.007812 562.890625 Z M 690.007812 562.890625 " fill-opacity="1" fill-rule="nonzero"/></g></g></g><g clip-path="url(#e6a0d16933)"><g clip-path="url(#4b147e5550)"><g clip-path="url(#e2c005402a)"><path fill="#6f6f98" d="M 650.132812 601.410156 C 642.410156 606.601562 634.296875 611.101562 625.804688 614.910156 C 625.445312 615.074219 625.066406 615.164062 624.671875 615.179688 C 624.273438 615.195312 623.890625 615.136719 623.519531 615 C 623.148438 614.859375 622.816406 614.660156 622.523438 614.390625 C 622.234375 614.121094 622.003906 613.808594 621.835938 613.449219 C 621.652344 613.089844 621.546875 612.710938 621.523438 612.3125 C 621.496094 611.910156 621.554688 611.519531 621.691406 611.140625 C 621.832031 610.765625 622.042969 610.433594 622.320312 610.144531 C 622.601562 609.855469 622.925781 609.632812 623.300781 609.480469 C 631.449219 605.652344 639.285156 601.265625 646.808594 596.320312 C 647.144531 596.15625 647.5 596.054688 647.871094 596.019531 C 648.242188 595.984375 648.609375 596.019531 648.96875 596.117188 C 649.328125 596.214844 649.660156 596.375 649.960938 596.59375 C 650.265625 596.816406 650.515625 597.082031 650.722656 597.394531 C 650.925781 597.707031 651.066406 598.046875 651.148438 598.410156 C 651.230469 598.777344 651.242188 599.144531 651.1875 599.511719 C 651.132812 599.882812 651.015625 600.230469 650.835938 600.558594 C 650.652344 600.882812 650.417969 601.167969 650.132812 601.410156 Z M 650.132812 601.410156 " fill-opacity="1" fill-rule="nonzero"/></g></g></g><g clip-path="url(#0e361cd31d)"><g clip-path="url(#10e58f0c13)"><g clip-path="url(#2a04bc244a)"><path fill="#6f6f98" d="M 599.636719 624.871094 C 590.757812 627.410156 581.757812 629.394531 572.632812 630.824219 C 572.261719 630.882812 571.890625 630.875 571.523438 630.789062 C 571.160156 630.707031 570.820312 630.554688 570.515625 630.339844 C 570.207031 630.121094 569.953125 629.855469 569.75 629.539062 C 569.550781 629.222656 569.414062 628.878906 569.347656 628.507812 C 569.285156 628.144531 569.292969 627.78125 569.375 627.421875 C 569.457031 627.058594 569.601562 626.726562 569.816406 626.425781 C 570.027344 626.121094 570.292969 625.871094 570.605469 625.671875 C 570.917969 625.476562 571.257812 625.34375 571.621094 625.28125 C 580.582031 623.757812 589.398438 621.644531 598.070312 618.9375 C 598.445312 618.824219 598.824219 618.789062 599.210938 618.828125 C 599.597656 618.867188 599.960938 618.976562 600.304688 619.160156 C 600.644531 619.34375 600.941406 619.585938 601.1875 619.886719 C 601.433594 620.1875 601.613281 620.523438 601.726562 620.894531 C 601.839844 621.265625 601.875 621.644531 601.839844 622.03125 C 601.800781 622.417969 601.691406 622.78125 601.507812 623.125 C 601.324219 623.46875 601.085938 623.761719 600.785156 624.011719 C 600.484375 624.257812 600.148438 624.4375 599.777344 624.550781 Z M 599.636719 624.871094 " fill-opacity="1" fill-rule="nonzero"/></g></g></g><g clip-path="url(#636c5f3514)"><g clip-path="url(#4200352905)"><g clip-path="url(#760424bd96)"><path fill="#6f6f98" d="M 544.824219 633.300781 C 540.21875 633.21875 535.628906 633.234375 531.007812 633.058594 L 517.210938 632.078125 C 516.914062 632.050781 516.632812 631.96875 516.371094 631.832031 C 516.109375 631.695312 515.882812 631.511719 515.691406 631.28125 C 515.5 631.054688 515.359375 630.800781 515.269531 630.515625 C 515.183594 630.234375 515.148438 629.941406 515.175781 629.648438 C 515.191406 629.359375 515.261719 629.085938 515.386719 628.828125 C 515.511719 628.566406 515.679688 628.339844 515.894531 628.148438 C 516.105469 627.957031 516.347656 627.8125 516.621094 627.714844 C 516.890625 627.617188 517.171875 627.578125 517.457031 627.589844 L 531.015625 628.316406 C 535.566406 628.359375 540.046875 628.265625 544.578125 628.210938 C 544.925781 628.183594 545.265625 628.230469 545.597656 628.34375 C 545.925781 628.457031 546.21875 628.632812 546.476562 628.867188 C 546.734375 629.101562 546.933594 629.382812 547.078125 629.699219 C 547.21875 630.019531 547.292969 630.355469 547.292969 630.703125 C 547.296875 631.050781 547.230469 631.386719 547.09375 631.710938 C 546.957031 632.03125 546.761719 632.3125 546.507812 632.550781 C 546.253906 632.792969 545.964844 632.972656 545.636719 633.089844 C 545.304688 633.210938 544.96875 633.257812 544.621094 633.238281 Z M 544.824219 633.300781 " fill-opacity="1" fill-rule="nonzero"/></g></g></g><g clip-path="url(#8c6a99ed96)"><g clip-path="url(#e3d0d3a87d)"><g clip-path="url(#9b221ab04f)"><path fill="#6f6f98" d="M 489.898438 627.828125 L 463.164062 620.984375 C 462.960938 620.921875 462.78125 620.828125 462.617188 620.699219 C 462.449219 620.566406 462.316406 620.410156 462.210938 620.230469 C 462.109375 620.046875 462.042969 619.851562 462.011719 619.644531 C 461.984375 619.4375 461.992188 619.230469 462.042969 619.027344 C 462.097656 618.828125 462.1875 618.648438 462.3125 618.484375 C 462.4375 618.316406 462.589844 618.183594 462.765625 618.074219 C 462.941406 617.964844 463.128906 617.894531 463.335938 617.859375 C 463.539062 617.824219 463.742188 617.828125 463.941406 617.867188 L 490.546875 623.953125 C 490.792969 624.015625 491.019531 624.125 491.226562 624.277344 C 491.429688 624.429688 491.601562 624.617188 491.734375 624.832031 C 491.867188 625.050781 491.957031 625.289062 492 625.539062 C 492.039062 625.792969 492.035156 626.042969 491.976562 626.292969 C 491.921875 626.542969 491.824219 626.769531 491.675781 626.976562 C 491.527344 627.179688 491.34375 627.351562 491.125 627.480469 C 490.90625 627.609375 490.671875 627.691406 490.421875 627.726562 C 490.167969 627.757812 489.921875 627.738281 489.675781 627.667969 Z M 489.898438 627.828125 " fill-opacity="1" fill-rule="nonzero"/></g></g></g><g clip-path="url(#e7b929ad9a)"><g clip-path="url(#731fec057a)"><g clip-path="url(#d0dc616fb7)"><path fill="#6f6f98" d="M 437.144531 612.0625 L 411.769531 601.511719 C 411.625 601.449219 411.5 601.363281 411.390625 601.253906 C 411.28125 601.140625 411.195312 601.015625 411.132812 600.871094 C 411.070312 600.726562 411.039062 600.578125 411.035156 600.421875 C 411.03125 600.265625 411.054688 600.113281 411.109375 599.964844 C 411.171875 599.824219 411.257812 599.695312 411.371094 599.585938 C 411.480469 599.476562 411.609375 599.390625 411.753906 599.328125 C 411.894531 599.269531 412.046875 599.234375 412.203125 599.230469 C 412.359375 599.226562 412.511719 599.253906 412.65625 599.308594 L 437.980469 609.570312 C 438.246094 609.75 438.421875 609.992188 438.515625 610.300781 C 438.609375 610.605469 438.597656 610.90625 438.476562 611.203125 C 438.359375 611.496094 438.160156 611.722656 437.882812 611.882812 C 437.605469 612.039062 437.308594 612.089844 436.992188 612.039062 Z M 437.144531 612.0625 " fill-opacity="1" fill-rule="nonzero"/></g></g></g><g clip-path="url(#9b0242170d)"><g clip-path="url(#fa302fcf48)"><g clip-path="url(#3bbd7fc6a8)"><path fill="#6f6f98" d="M 387.035156 589.585938 L 362.855469 576.628906 C 362.609375 576.480469 362.445312 576.265625 362.367188 575.988281 C 362.292969 575.707031 362.320312 575.441406 362.457031 575.183594 C 362.589844 574.925781 362.796875 574.746094 363.074219 574.652344 C 363.351562 574.554688 363.621094 574.570312 363.886719 574.691406 L 388.066406 587.648438 C 388.195312 587.714844 388.308594 587.804688 388.398438 587.917969 C 388.492188 588.027344 388.5625 588.15625 388.605469 588.292969 C 388.648438 588.433594 388.660156 588.574219 388.644531 588.722656 C 388.632812 588.867188 388.589844 589.003906 388.519531 589.132812 C 388.367188 589.386719 388.148438 589.558594 387.863281 589.644531 C 387.582031 589.730469 387.304688 589.710938 387.035156 589.585938 Z M 387.035156 589.585938 " fill-opacity="1" fill-rule="nonzero"/></g></g></g><g clip-path="url(#264d051b82)"><g clip-path="url(#6b2851089d)"><g clip-path="url(#e5ae263033)"><path fill="#6f6f98" d="M 339.058594 562.78125 C 331.3125 558.019531 323.890625 552.792969 316.800781 547.101562 C 316.675781 546.992188 316.574219 546.863281 316.5 546.714844 C 316.421875 546.566406 316.378906 546.410156 316.363281 546.242188 C 316.347656 546.078125 316.363281 545.914062 316.410156 545.757812 C 316.457031 545.597656 316.535156 545.453125 316.636719 545.320312 C 316.730469 545.183594 316.851562 545.074219 316.992188 544.988281 C 317.136719 544.902344 317.289062 544.851562 317.453125 544.832031 C 317.617188 544.8125 317.78125 544.828125 317.9375 544.878906 C 318.097656 544.929688 318.238281 545.007812 318.359375 545.121094 C 325.46875 550.792969 332.886719 556.019531 340.621094 560.800781 C 340.757812 560.875 340.875 560.972656 340.972656 561.097656 C 341.066406 561.222656 341.132812 561.359375 341.167969 561.511719 C 341.203125 561.667969 341.207031 561.820312 341.175781 561.972656 C 341.148438 562.128906 341.085938 562.269531 340.996094 562.394531 C 340.960938 562.488281 340.914062 562.578125 340.859375 562.65625 C 340.800781 562.738281 340.734375 562.8125 340.660156 562.875 C 340.585938 562.941406 340.503906 562.996094 340.414062 563.039062 C 340.324219 563.082031 340.230469 563.113281 340.132812 563.132812 C 340.035156 563.148438 339.9375 563.15625 339.839844 563.152344 C 339.742188 563.144531 339.644531 563.128906 339.550781 563.097656 C 339.457031 563.066406 339.367188 563.023438 339.285156 562.96875 C 339.199219 562.917969 339.125 562.855469 339.058594 562.78125 Z M 339.058594 562.78125 " fill-opacity="1" fill-rule="nonzero"/></g></g></g><g clip-path="url(#93b789aae7)"><g clip-path="url(#a9db899eb7)"><g clip-path="url(#e3687963e2)"><path fill="#6f6f98" d="M 296.636719 527.734375 C 290.429688 520.660156 285.558594 512.761719 282.027344 504.039062 C 281.957031 503.824219 281.929688 503.605469 281.945312 503.382812 C 281.957031 503.160156 282.007812 502.945312 282.097656 502.742188 C 282.1875 502.535156 282.3125 502.355469 282.46875 502.195312 C 282.625 502.035156 282.804688 501.910156 283.007812 501.816406 C 283.222656 501.730469 283.441406 501.691406 283.667969 501.695312 C 283.898438 501.699219 284.117188 501.746094 284.324219 501.839844 C 284.535156 501.933594 284.71875 502.0625 284.875 502.226562 C 285.03125 502.394531 285.148438 502.582031 285.230469 502.796875 C 288.46875 511.265625 293.011719 518.960938 298.855469 525.886719 C 298.972656 526.035156 299.058594 526.199219 299.113281 526.382812 C 299.164062 526.566406 299.183594 526.75 299.164062 526.9375 C 299.148438 527.128906 299.097656 527.308594 299.011719 527.476562 C 298.925781 527.644531 298.8125 527.792969 298.671875 527.921875 C 298.523438 528.035156 298.355469 528.121094 298.175781 528.175781 C 297.992188 528.226562 297.808594 528.246094 297.617188 528.230469 C 297.429688 528.210938 297.25 528.160156 297.082031 528.074219 C 296.910156 527.988281 296.765625 527.875 296.636719 527.734375 Z M 296.636719 527.734375 " fill-opacity="1" fill-rule="nonzero"/></g></g></g><g clip-path="url(#3b0d9f7587)"><g clip-path="url(#fe7e5dc99f)"><g clip-path="url(#4cd6c10b52)"><path fill="#6f6f98" d="M 279.042969 476.125 C 279.820312 471.363281 281.316406 466.835938 283.527344 462.546875 C 285.734375 458.257812 288.554688 454.417969 291.980469 451.019531 C 292.179688 450.808594 292.414062 450.644531 292.683594 450.527344 C 292.949219 450.410156 293.230469 450.355469 293.519531 450.355469 C 293.8125 450.355469 294.09375 450.414062 294.359375 450.53125 C 294.628906 450.644531 294.859375 450.808594 295.058594 451.023438 C 295.261719 451.226562 295.421875 451.464844 295.53125 451.730469 C 295.640625 451.996094 295.695312 452.273438 295.695312 452.5625 C 295.695312 452.851562 295.640625 453.128906 295.527344 453.394531 C 295.417969 453.660156 295.261719 453.898438 295.054688 454.101562 C 291.929688 457.175781 289.324219 460.640625 287.234375 464.496094 C 285.160156 468.363281 283.722656 472.457031 282.914062 476.773438 C 282.855469 477.015625 282.753906 477.242188 282.605469 477.449219 C 282.457031 477.65625 282.277344 477.828125 282.066406 477.964844 C 281.855469 478.101562 281.625 478.191406 281.375 478.242188 C 281.128906 478.289062 280.878906 478.289062 280.628906 478.242188 C 280.386719 478.203125 280.160156 478.121094 279.949219 477.992188 C 279.738281 477.863281 279.558594 477.703125 279.410156 477.503906 C 279.261719 477.308594 279.15625 477.089844 279.089844 476.851562 C 279.027344 476.613281 279.011719 476.371094 279.042969 476.125 Z M 279.042969 476.125 " fill-opacity="1" fill-rule="nonzero"/></g></g></g><g clip-path="url(#33a0f672ff)"><g clip-path="url(#c73c8b20e1)"><g clip-path="url(#2ad156e3a8)"><path fill="#6f6f98" d="M 316.242188 436.554688 C 320.816406 435.140625 325.492188 434.25 330.265625 433.875 C 335.039062 433.5 339.792969 433.652344 344.53125 434.335938 C 344.734375 434.34375 344.933594 434.378906 345.128906 434.433594 C 345.324219 434.488281 345.507812 434.566406 345.6875 434.664062 C 345.863281 434.761719 346.027344 434.878906 346.179688 435.015625 C 346.328125 435.148438 346.460938 435.300781 346.578125 435.46875 C 346.695312 435.632812 346.789062 435.808594 346.867188 436 C 346.941406 436.1875 346.996094 436.378906 347.027344 436.582031 C 347.058594 436.78125 347.066406 436.980469 347.050781 437.183594 C 347.035156 437.386719 346.996094 437.585938 346.9375 437.777344 C 346.886719 438.128906 346.773438 438.457031 346.589844 438.757812 C 346.40625 439.0625 346.171875 439.316406 345.886719 439.523438 C 345.597656 439.730469 345.28125 439.871094 344.9375 439.949219 C 344.589844 440.027344 344.246094 440.03125 343.894531 439.964844 C 339.550781 439.222656 335.179688 438.980469 330.777344 439.242188 C 326.375 439.5 322.0625 440.253906 317.832031 441.503906 C 317.527344 441.601562 317.210938 441.636719 316.890625 441.609375 C 316.566406 441.578125 316.265625 441.484375 315.980469 441.332031 C 315.695312 441.179688 315.453125 440.976562 315.25 440.722656 C 315.046875 440.472656 314.902344 440.191406 314.816406 439.878906 C 314.675781 439.566406 314.601562 439.238281 314.597656 438.894531 C 314.59375 438.546875 314.660156 438.21875 314.796875 437.902344 C 314.933594 437.585938 315.125 437.3125 315.378906 437.074219 C 315.628906 436.839844 315.917969 436.667969 316.242188 436.554688 Z M 316.242188 436.554688 " fill-opacity="1" fill-rule="nonzero"/></g></g></g><g clip-path="url(#6341f7cf56)"><g clip-path="url(#6d38643793)"><g clip-path="url(#eebaaba11e)"><path fill="#6f6f98" d="M 370.773438 445.660156 C 374.515625 448.59375 377.90625 451.886719 380.945312 455.542969 C 383.984375 459.199219 386.601562 463.136719 388.800781 467.351562 C 388.984375 467.714844 389.097656 468.097656 389.132812 468.503906 C 389.171875 468.910156 389.128906 469.308594 389.007812 469.699219 C 388.890625 470.089844 388.703125 470.445312 388.445312 470.761719 C 388.1875 471.078125 387.878906 471.332031 387.519531 471.53125 C 387.15625 471.734375 386.761719 471.855469 386.347656 471.898438 C 385.929688 471.941406 385.519531 471.902344 385.121094 471.777344 C 384.722656 471.652344 384.363281 471.457031 384.042969 471.183594 C 383.726562 470.910156 383.472656 470.585938 383.285156 470.210938 C 381.269531 466.34375 378.871094 462.726562 376.089844 459.367188 C 373.308594 456.003906 370.207031 452.96875 366.785156 450.261719 C 366.488281 450.019531 366.246094 449.730469 366.0625 449.394531 C 365.878906 449.058594 365.765625 448.699219 365.722656 448.320312 C 365.679688 447.9375 365.710938 447.5625 365.8125 447.195312 C 365.917969 446.828125 366.085938 446.492188 366.324219 446.1875 C 366.4375 446.003906 366.566406 445.835938 366.71875 445.683594 C 366.871094 445.53125 367.035156 445.394531 367.21875 445.277344 C 367.398438 445.164062 367.59375 445.066406 367.796875 444.996094 C 367.996094 444.921875 368.207031 444.875 368.421875 444.847656 C 368.632812 444.824219 368.847656 444.820312 369.0625 444.84375 C 369.277344 444.867188 369.488281 444.914062 369.691406 444.984375 C 369.894531 445.054688 370.085938 445.148438 370.269531 445.261719 C 370.453125 445.375 370.621094 445.507812 370.773438 445.660156 Z M 370.773438 445.660156 " fill-opacity="1" fill-rule="nonzero"/></g></g></g><g clip-path="url(#13d485df3e)"><g clip-path="url(#0d3ee15ecc)"><g clip-path="url(#e7a4d9be3b)"><path fill="#6f6f98" d="M 397.484375 494.617188 C 398.683594 504.1875 398.144531 513.660156 395.867188 523.035156 C 395.769531 523.464844 395.59375 523.855469 395.335938 524.210938 C 395.082031 524.570312 394.765625 524.863281 394.394531 525.09375 C 394.019531 525.324219 393.617188 525.472656 393.183594 525.539062 C 392.75 525.605469 392.320312 525.589844 391.894531 525.480469 C 391.460938 525.382812 391.0625 525.203125 390.703125 524.949219 C 390.339844 524.691406 390.042969 524.375 389.808594 523.996094 C 389.574219 523.621094 389.417969 523.214844 389.347656 522.777344 C 389.273438 522.339844 389.289062 521.902344 389.390625 521.472656 C 391.535156 512.894531 392.097656 504.214844 391.078125 495.433594 C 391 495.019531 391.007812 494.605469 391.097656 494.191406 C 391.1875 493.777344 391.351562 493.398438 391.597656 493.050781 C 391.839844 492.707031 392.140625 492.421875 392.5 492.195312 C 392.859375 491.972656 393.25 491.828125 393.667969 491.761719 C 393.886719 491.71875 394.109375 491.695312 394.335938 491.699219 C 394.558594 491.703125 394.78125 491.726562 395 491.777344 C 395.21875 491.828125 395.433594 491.898438 395.636719 491.992188 C 395.839844 492.085938 396.03125 492.203125 396.214844 492.335938 C 396.394531 492.472656 396.558594 492.625 396.707031 492.792969 C 396.851562 492.960938 396.980469 493.144531 397.089844 493.339844 C 397.199219 493.539062 397.289062 493.742188 397.355469 493.957031 C 397.421875 494.171875 397.464844 494.394531 397.484375 494.617188 Z M 397.484375 494.617188 " fill-opacity="1" fill-rule="nonzero"/></g></g></g><g clip-path="url(#32e3b49ad8)"><g clip-path="url(#c8a80b30c5)"><g clip-path="url(#d035c9fc5d)"><path fill="#6f6f98" d="M 384.300781 549.023438 C 378.976562 556.9375 372.65625 563.945312 365.328125 570.046875 C 365.15625 570.230469 364.96875 570.390625 364.765625 570.53125 C 364.558594 570.675781 364.34375 570.792969 364.113281 570.890625 C 363.882812 570.984375 363.644531 571.058594 363.398438 571.101562 C 363.15625 571.148438 362.90625 571.167969 362.65625 571.164062 C 362.410156 571.15625 362.164062 571.125 361.921875 571.066406 C 361.679688 571.007812 361.445312 570.921875 361.21875 570.816406 C 360.996094 570.707031 360.78125 570.578125 360.585938 570.425781 C 360.386719 570.273438 360.210938 570.101562 360.046875 569.910156 C 359.886719 569.722656 359.746094 569.515625 359.628906 569.296875 C 359.511719 569.078125 359.417969 568.847656 359.347656 568.605469 C 359.28125 568.367188 359.234375 568.125 359.21875 567.875 C 359.199219 567.625 359.210938 567.378906 359.242188 567.132812 C 359.277344 566.882812 359.339844 566.644531 359.425781 566.410156 C 359.511719 566.175781 359.617188 565.953125 359.75 565.742188 C 359.882812 565.53125 360.039062 565.335938 360.210938 565.15625 C 360.386719 564.976562 360.574219 564.820312 360.785156 564.679688 C 367.621094 559.03125 373.546875 552.546875 378.5625 545.234375 C 378.8125 544.847656 379.125 544.527344 379.5 544.269531 C 379.878906 544.011719 380.292969 543.835938 380.742188 543.746094 C 381.1875 543.652344 381.636719 543.652344 382.085938 543.742188 C 382.535156 543.832031 382.949219 544.003906 383.328125 544.261719 C 383.699219 544.519531 384.007812 544.839844 384.253906 545.21875 C 384.503906 545.59375 384.671875 546.007812 384.761719 546.449219 C 384.851562 546.890625 384.859375 547.335938 384.777344 547.78125 C 384.699219 548.226562 384.539062 548.640625 384.300781 549.023438 Z M 384.300781 549.023438 " fill-opacity="1" fill-rule="nonzero"/></g></g></g><g clip-path="url(#695900f6e6)"><g clip-path="url(#73456e4fd4)"><g clip-path="url(#4a3541da65)"><path fill="#6f6f98" d="M 341.667969 585.433594 C 337.445312 587.527344 333.097656 589.324219 328.628906 590.820312 C 324.171875 592.425781 319.628906 593.554688 315.046875 594.738281 C 314.585938 594.863281 314.121094 594.890625 313.652344 594.828125 C 313.179688 594.765625 312.738281 594.609375 312.332031 594.371094 C 311.921875 594.128906 311.574219 593.816406 311.289062 593.4375 C 311.007812 593.054688 310.808594 592.632812 310.691406 592.171875 C 310.574219 591.714844 310.542969 591.25 310.605469 590.78125 C 310.667969 590.3125 310.816406 589.875 311.050781 589.460938 C 311.285156 589.050781 311.589844 588.699219 311.960938 588.410156 C 312.335938 588.117188 312.75 587.910156 313.203125 587.78125 C 317.445312 586.605469 321.855469 585.546875 325.953125 584.105469 C 330.074219 582.550781 334.097656 580.78125 338.023438 578.789062 C 338.457031 578.578125 338.914062 578.460938 339.394531 578.4375 C 339.875 578.410156 340.339844 578.476562 340.792969 578.636719 C 341.25 578.796875 341.652344 579.035156 342.011719 579.355469 C 342.371094 579.679688 342.652344 580.054688 342.859375 580.488281 C 343.070312 580.921875 343.1875 581.378906 343.210938 581.859375 C 343.238281 582.339844 343.171875 582.804688 343.011719 583.261719 C 342.851562 583.714844 342.613281 584.121094 342.292969 584.476562 C 341.972656 584.835938 341.59375 585.117188 341.160156 585.328125 Z M 341.667969 585.433594 " fill-opacity="1" fill-rule="nonzero"/></g></g></g><g clip-path="url(#bafd6560df)"><g clip-path="url(#7460b3f749)"><g clip-path="url(#2d5c9dc052)"><path fill="#6f6f98" d="M 287.304688 598.425781 C 277.980469 598.761719 268.679688 598.453125 259.398438 597.5 C 258.933594 597.457031 258.496094 597.324219 258.085938 597.101562 C 257.675781 596.878906 257.324219 596.589844 257.03125 596.226562 C 256.738281 595.863281 256.527344 595.457031 256.398438 595.011719 C 256.269531 594.5625 256.230469 594.105469 256.285156 593.644531 C 256.335938 593.1875 256.46875 592.753906 256.6875 592.347656 C 256.90625 591.941406 257.191406 591.589844 257.546875 591.296875 C 257.902344 591.003906 258.300781 590.785156 258.738281 590.648438 C 259.179688 590.507812 259.628906 590.457031 260.085938 590.492188 C 269.039062 591.421875 278.007812 591.691406 286.996094 591.300781 C 287.46875 591.277344 287.925781 591.351562 288.371094 591.511719 C 288.816406 591.675781 289.210938 591.914062 289.558594 592.234375 C 289.910156 592.554688 290.183594 592.929688 290.382812 593.355469 C 290.582031 593.785156 290.691406 594.238281 290.710938 594.707031 C 290.734375 595.179688 290.664062 595.640625 290.5 596.085938 C 290.339844 596.527344 290.097656 596.925781 289.777344 597.273438 C 289.457031 597.621094 289.085938 597.894531 288.65625 598.097656 C 288.226562 598.296875 287.777344 598.40625 287.304688 598.425781 Z M 287.304688 598.425781 " fill-opacity="1" fill-rule="nonzero"/></g></g></g><g clip-path="url(#36a64acb43)"><g clip-path="url(#01b55e8769)"><g clip-path="url(#8ecbc183da)"><path fill="#6f6f98" d="M 231.941406 592.980469 C 222.925781 591.125 214.105469 588.160156 205.195312 585.796875 C 204.761719 585.667969 204.367188 585.464844 204.011719 585.183594 C 203.652344 584.902344 203.363281 584.566406 203.136719 584.175781 C 202.910156 583.78125 202.761719 583.363281 202.695312 582.914062 C 202.628906 582.464844 202.652344 582.019531 202.757812 581.578125 C 202.875 581.144531 203.074219 580.75 203.347656 580.390625 C 203.625 580.035156 203.960938 579.746094 204.351562 579.523438 C 204.742188 579.296875 205.164062 579.15625 205.609375 579.101562 C 206.058594 579.042969 206.5 579.074219 206.933594 579.195312 L 207.210938 579.390625 C 215.914062 581.691406 224.472656 584.554688 233.378906 586.332031 C 233.832031 586.425781 234.25 586.601562 234.632812 586.863281 C 235.015625 587.121094 235.332031 587.445312 235.585938 587.832031 C 235.839844 588.21875 236.011719 588.636719 236.097656 589.089844 C 236.1875 589.546875 236.183594 590 236.089844 590.453125 C 235.996094 590.90625 235.820312 591.324219 235.5625 591.707031 C 235.304688 592.089844 234.980469 592.40625 234.59375 592.664062 C 234.210938 592.917969 233.789062 593.089844 233.335938 593.175781 C 232.882812 593.265625 232.429688 593.261719 231.976562 593.171875 Z M 231.941406 592.980469 " fill-opacity="1" fill-rule="nonzero"/></g></g></g><g clip-path="url(#5257ba41e8)"><g clip-path="url(#3fd70400f4)"><g clip-path="url(#72e407a060)"><path fill="#6f6f98" d="M 179.296875 575.878906 L 154.53125 563.757812 C 154.1875 563.589844 153.886719 563.359375 153.632812 563.074219 C 153.378906 562.785156 153.1875 562.460938 153.0625 562.101562 C 152.933594 561.738281 152.882812 561.367188 152.902344 560.984375 C 152.921875 560.601562 153.011719 560.238281 153.175781 559.890625 C 153.351562 559.550781 153.582031 559.257812 153.871094 559.011719 C 154.160156 558.761719 154.480469 558.574219 154.839844 558.449219 C 155.199219 558.320312 155.570312 558.265625 155.949219 558.28125 C 156.332031 558.296875 156.695312 558.382812 157.042969 558.535156 L 181.601562 570.007812 C 181.972656 570.195312 182.296875 570.445312 182.574219 570.761719 C 182.851562 571.074219 183.058594 571.425781 183.203125 571.820312 C 183.34375 572.214844 183.40625 572.621094 183.390625 573.039062 C 183.375 573.457031 183.285156 573.855469 183.117188 574.238281 C 182.933594 574.617188 182.6875 574.949219 182.375 575.230469 C 182.0625 575.511719 181.707031 575.722656 181.3125 575.863281 C 180.914062 576.003906 180.507812 576.066406 180.085938 576.046875 C 179.667969 576.027344 179.265625 575.929688 178.882812 575.753906 Z M 179.296875 575.878906 " fill-opacity="1" fill-rule="nonzero"/></g></g></g><g clip-path="url(#e6070b0f7a)"><g clip-path="url(#b300c9c12b)"><g clip-path="url(#fac09515aa)"><path fill="#6f6f98" d="M 130.746094 549.417969 L 108.386719 533.167969 C 108.132812 532.96875 107.925781 532.730469 107.765625 532.449219 C 107.605469 532.171875 107.5 531.871094 107.453125 531.550781 C 107.410156 531.234375 107.421875 530.917969 107.5 530.601562 C 107.574219 530.289062 107.703125 530 107.890625 529.738281 C 108.082031 529.480469 108.3125 529.273438 108.585938 529.105469 C 108.859375 528.941406 109.152344 528.835938 109.46875 528.785156 C 109.785156 528.734375 110.097656 528.746094 110.40625 528.816406 C 110.71875 528.890625 111.003906 529.015625 111.265625 529.203125 L 133.859375 545.117188 C 134.089844 545.34375 134.277344 545.601562 134.414062 545.894531 C 134.554688 546.1875 134.640625 546.492188 134.667969 546.816406 C 134.699219 547.136719 134.671875 547.457031 134.589844 547.769531 C 134.507812 548.082031 134.371094 548.371094 134.183594 548.636719 C 134 548.902344 133.773438 549.125 133.503906 549.308594 C 133.238281 549.492188 132.949219 549.625 132.632812 549.707031 C 132.320312 549.785156 132.003906 549.808594 131.679688 549.777344 C 131.359375 549.742188 131.050781 549.65625 130.761719 549.511719 Z M 130.746094 549.417969 " fill-opacity="1" fill-rule="nonzero"/></g></g></g><g clip-path="url(#75e3e8473a)"><g clip-path="url(#07651b4047)"><g clip-path="url(#9d97691db0)"><path fill="#6f6f98" d="M 87.609375 515.035156 L 68.289062 495.179688 C 68.109375 494.992188 67.96875 494.777344 67.875 494.53125 C 67.777344 494.289062 67.730469 494.035156 67.738281 493.773438 C 67.742188 493.511719 67.796875 493.261719 67.902344 493.019531 C 68.007812 492.78125 68.152344 492.570312 68.34375 492.386719 C 68.527344 492.210938 68.738281 492.074219 68.976562 491.980469 C 69.214844 491.886719 69.460938 491.839844 69.714844 491.84375 C 69.96875 491.84375 70.214844 491.890625 70.453125 491.988281 C 70.6875 492.085938 70.898438 492.222656 71.082031 492.402344 L 90.433594 511.613281 C 90.652344 511.8125 90.820312 512.050781 90.941406 512.320312 C 91.0625 512.589844 91.125 512.875 91.128906 513.171875 C 91.136719 513.464844 91.082031 513.75 90.972656 514.027344 C 90.859375 514.300781 90.699219 514.542969 90.492188 514.75 C 90.28125 514.960938 90.039062 515.121094 89.765625 515.230469 C 89.488281 515.339844 89.203125 515.394531 88.910156 515.386719 C 88.613281 515.382812 88.328125 515.316406 88.058594 515.195312 C 87.789062 515.074219 87.554688 514.90625 87.351562 514.6875 Z M 87.609375 515.035156 " fill-opacity="1" fill-rule="nonzero"/></g></g></g><g clip-path="url(#4e65c1813d)"><g clip-path="url(#c3f0085669)"><g clip-path="url(#d4a3269f58)"><path fill="#6f6f98" d="M 51.011719 473.851562 L 35.605469 450.925781 C 35.507812 450.773438 35.445312 450.609375 35.410156 450.429688 C 35.378906 450.253906 35.382812 450.078125 35.421875 449.902344 C 35.460938 449.726562 35.53125 449.5625 35.632812 449.414062 C 35.734375 449.265625 35.859375 449.144531 36.011719 449.046875 C 36.316406 448.855469 36.648438 448.792969 37.003906 448.851562 C 37.355469 448.910156 37.648438 449.078125 37.875 449.359375 L 53.65625 471.632812 C 53.785156 471.816406 53.875 472.019531 53.921875 472.242188 C 53.972656 472.460938 53.976562 472.683594 53.9375 472.902344 C 53.898438 473.125 53.816406 473.332031 53.695312 473.523438 C 53.574219 473.710938 53.421875 473.871094 53.234375 474 C 53.054688 474.140625 52.851562 474.238281 52.628906 474.289062 C 52.40625 474.34375 52.183594 474.351562 51.960938 474.3125 C 51.734375 474.273438 51.527344 474.1875 51.335938 474.0625 C 51.148438 473.933594 50.988281 473.773438 50.867188 473.582031 Z M 51.011719 473.851562 " fill-opacity="1" fill-rule="nonzero"/></g></g></g><g clip-path="url(#68ec0f8506)"><g clip-path="url(#0d0327910b)"><g clip-path="url(#885ebb9c7c)"><path fill="#6f6f98" d="M 22.515625 426.71875 L 11.742188 401.476562 C 11.6875 401.417969 11.648438 401.351562 11.628906 401.277344 C 11.605469 401.199219 11.601562 401.125 11.621094 401.046875 C 11.636719 400.96875 11.667969 400.902344 11.71875 400.839844 C 11.769531 400.78125 11.832031 400.734375 11.902344 400.703125 C 11.976562 400.675781 12.050781 400.664062 12.132812 400.671875 C 12.210938 400.679688 12.28125 400.703125 12.347656 400.746094 C 12.414062 400.789062 12.464844 400.847656 12.503906 400.914062 C 12.539062 400.984375 12.5625 401.058594 12.5625 401.136719 L 24.140625 425.949219 C 24.230469 426.183594 24.230469 426.421875 24.144531 426.660156 C 24.054688 426.898438 23.898438 427.078125 23.675781 427.199219 C 23.441406 427.234375 23.226562 427.1875 23.035156 427.050781 C 22.839844 426.914062 22.71875 426.726562 22.675781 426.496094 Z M 22.515625 426.71875 " fill-opacity="1" fill-rule="nonzero"/></g></g></g></svg>